# Blender v2.92.0 OBJ File: ''
# www.blender.org
mtllib arrow.mtl
o Plane
v 0.000000 0.225928 1.000000
v 0.750000 0.000000 -1.000000
v 0.000000 0.000000 -0.600000
v -0.750000 0.000000 -1.000000
v 0.750000 0.451855 -1.000000
v 0.000000 0.451855 -0.600000
v -0.750000 0.451855 -1.000000
vt 0.000000 0.000000
vt 1.000000 1.000000
vt 1.000000 0.500000
vt 1.000000 0.000000
vt 1.000000 0.000000
vt 1.000000 0.500000
vt 1.000000 1.000000
vn 0.0000 -0.9902 0.1398
vn 0.0000 0.9902 0.1398
vn -0.9363 0.0000 0.3511
vn 0.4706 0.0000 -0.8824
vn -0.4706 0.0000 -0.8824
vn 0.9363 0.0000 0.3511
usemtl None
s off
f 1/1/1 4/2/1 3/3/1 2/4/1
f 1/1/2 5/5/2 6/6/2 7/7/2
f 4/2/3 1/1/3 7/7/3
f 3/3/4 4/2/4 7/7/4 6/6/4
f 2/4/5 3/3/5 6/6/5 5/5/5
f 1/1/6 2/4/6 5/5/6
